<?xml version="1.0" standalone="no"?>
<!DOCTYPE svg PUBLIC "-//W3C//DTD SVG 20010904//EN"
 "http://www.w3.org/TR/2001/REC-SVG-20010904/DTD/svg10.dtd">
<svg version="1.0" xmlns="http://www.w3.org/2000/svg"
 width="650.000000pt" height="578.000000pt" viewBox="0 0 650.000000 578.000000"
 preserveAspectRatio="xMidYMid meet">

<g transform="translate(0.000000,578.000000) scale(0.100000,-0.100000)"
fill="#000000" stroke="none">
<path d="M2410 5360 c-109 -9 -161 -24 -309 -87 -257 -110 -506 -282 -663
-458 -217 -243 -283 -353 -396 -655 -96 -256 -116 -424 -109 -903 4 -290 8
-353 30 -497 41 -265 103 -492 186 -678 26 -59 63 -145 81 -191 46 -117 234
-441 345 -596 105 -148 281 -362 395 -481 77 -81 337 -400 387 -475 19 -29 32
-39 47 -37 30 4 31 34 4 71 -32 43 -43 61 -32 55 5 -3 41 -23 79 -46 149 -87
311 -126 565 -137 221 -10 1190 -5 1285 6 44 5 127 14 185 20 229 23 391 72
504 153 117 83 349 343 488 546 109 159 246 427 312 610 67 186 235 814 266
993 34 204 26 567 -21 827 -45 256 -93 410 -186 595 -93 186 -172 296 -312
433 -223 219 -327 291 -656 452 -308 152 -564 238 -1018 340 -504 115 -695
140 -1087 145 -151 2 -318 0 -370 -5z m796 -75 c229 -26 310 -41 664 -119 481
-107 820 -228 1148 -411 221 -123 289 -172 455 -334 170 -166 248 -272 348
-476 70 -144 99 -229 138 -406 55 -245 64 -340 65 -629 1 -305 0 -311 -95
-675 -144 -552 -199 -712 -329 -963 -119 -228 -185 -325 -370 -542 -218 -256
-308 -305 -700 -381 -108 -21 -146 -23 -633 -27 -350 -2 -558 1 -640 8 -67 7
-180 16 -252 20 -258 16 -453 74 -555 167 -32 28 -40 42 -40 69 0 63 -59 95
-100 54 -22 -22 -24 -37 -11 -92 5 -21 7 -38 5 -38 -2 0 -47 53 -101 118 -53
64 -145 169 -203 232 -415 451 -613 767 -851 1357 -45 112 -106 361 -136 553
-26 168 -28 190 -28 565 0 358 2 400 22 510 46 252 162 536 296 725 97 136
339 375 458 452 175 113 370 204 524 244 179 47 595 56 921 19z"/>
<path d="M4884 3906 c-98 -43 -39 -189 63 -155 69 22 77 121 12 154 -34 18
-36 18 -75 1z"/>
<path d="M2284 3386 c-98 -43 -39 -189 63 -155 69 22 77 121 12 154 -34 18
-36 18 -75 1z"/>
<path d="M3995 1995 c-81 -25 -130 -34 -187 -34 -80 -1 -108 -14 -108 -50 0
-59 111 -67 309 -22 96 22 129 34 143 51 10 12 18 26 18 32 0 12 -47 58 -57
57 -4 -1 -57 -16 -118 -34z"/>
</g>
</svg>
